<svg width="21" height="18" viewBox="0 0 21 18" fill="none" xmlns="http://www.w3.org/2000/svg">
<path d="M18.4121 4.92555C18.4248 5.1032 18.4248 5.2809 18.4248 5.45875C18.4248 10.8767 14.2998 17.1228 6.76074 17.1228C4.43848 17.1228 2.28027 16.4502 0.467773 15.2826C0.797734 15.3206 1.11504 15.3333 1.45762 15.3333C3.37402 15.3333 5.1377 14.6861 6.54746 13.5821C4.74551 13.5441 3.23535 12.3638 2.71504 10.7396C2.96887 10.7776 3.22246 10.803 3.48926 10.803C3.85727 10.803 4.2252 10.7522 4.56777 10.6634C2.68965 10.2827 1.28105 8.63297 1.28105 6.67516V6.62441C1.82676 6.92898 2.46113 7.11934 3.13379 7.14473C2.02988 6.40879 1.30645 5.15215 1.30645 3.73105C1.30645 2.96973 1.50945 2.27168 1.86465 1.6627C3.88223 4.1498 6.91543 5.77598 10.3178 5.95176C10.2543 5.64719 10.2163 5.32988 10.2163 5.0127C10.2163 2.75371 12.0436 0.915039 14.3139 0.915039C15.494 0.915039 16.56 1.40996 17.3088 2.20957C18.2354 2.03191 19.1237 1.68926 19.9104 1.21973C19.6058 2.17168 18.9584 2.9709 18.1084 3.47871C18.9334 3.38992 19.7327 3.16145 20.469 2.84434C19.9108 3.65645 19.2127 4.37988 18.4131 4.96348L18.4121 4.92555Z" fill="white"/>
</svg>
