<svg width="35" height="28" viewBox="0 0 35 28" fill="none" xmlns="http://www.w3.org/2000/svg">
<path d="M34.2976 3.25979C33.0445 3.80947 31.7093 4.17382 30.3172 4.35073C31.7493 3.49567 32.8424 2.152 33.3562 0.532435C32.021 1.32853 30.5467 1.89085 28.9756 2.20465C27.7078 0.854663 25.9008 0.0185547 23.9295 0.0185547C20.1049 0.0185547 17.0258 3.1229 17.0258 6.92856C17.0258 7.47614 17.0721 8.00265 17.1859 8.50389C11.4426 8.22379 6.36068 5.47116 2.94674 1.27798C2.35073 2.31206 2.00112 3.49567 2.00112 4.76984C2.00112 7.16233 3.23317 9.28314 5.06966 10.511C3.95976 10.4899 2.87093 10.1677 1.94847 9.66013C1.94847 9.68119 1.94847 9.70856 1.94847 9.73594C1.94847 13.093 4.34307 15.8814 7.48321 16.5238C6.92089 16.6775 6.30803 16.7512 5.67199 16.7512C5.22972 16.7512 4.78323 16.726 4.36413 16.6333C5.2592 19.3691 7.79912 21.3804 10.8192 21.4457C8.46885 23.2843 5.48455 24.3921 2.25385 24.3921C1.68732 24.3921 1.14395 24.3668 0.600586 24.2973C3.6607 26.2707 7.28735 27.3974 11.1983 27.3974C23.9105 27.3974 30.8605 16.8671 30.8605 7.73939C30.8605 7.43401 30.85 7.13916 30.8353 6.84642C32.2063 5.87342 33.3583 4.65822 34.2976 3.25979Z" fill="#BDBDBD"/>
</svg>
