<svg width="25" height="20" viewBox="0 0 25 20" fill="none" xmlns="http://www.w3.org/2000/svg"><path d="M22.43 4.985c.016.218.016.437.016.656C22.446 12.312 17.291 20 7.868 20A14.64 14.64 0 0 1 0 17.734c.41.045.824.066 1.237.063a10.361 10.361 0 0 0 6.361-2.156 5.183 5.183 0 0 1-2.964-.995 5.059 5.059 0 0 1-1.826-2.505c.32.05.643.076.967.078a5.5 5.5 0 0 0 1.349-.172 5.14 5.14 0 0 1-2.952-1.755 5.003 5.003 0 0 1-1.157-3.199v-.062c.71.39 1.504.61 2.316.64a5.054 5.054 0 0 1-2.152-3.064A4.988 4.988 0 0 1 1.745.922 14.525 14.525 0 0 0 6.458 4.67a14.73 14.73 0 0 0 5.852 1.534 5.63 5.63 0 0 1-.127-1.154c0-1.012.309-2.002.887-2.839A5.114 5.114 0 0 1 15.424.354a5.2 5.2 0 0 1 3.007-.232 5.146 5.146 0 0 1 2.619 1.474A10.182 10.182 0 0 0 24.302.377a5.046 5.046 0 0 1-2.253 2.782A10.408 10.408 0 0 0 25 2.375a10.928 10.928 0 0 1-2.57 2.61Z" fill="url(#a)"/><defs><linearGradient id="a" x1="0" y1="0" x2="25" y2="20" gradientUnits="userSpaceOnUse"><stop stop-color="#7A7A7A"/><stop offset="1" stop-color="#494949"/></linearGradient></defs></svg>