<svg width="33" height="30" viewBox="0 0 33 30" fill="none" xmlns="http://www.w3.org/2000/svg">
<g clip-path="url(#clip0_179_3240)">
<path fill-rule="evenodd" clip-rule="evenodd" d="M32.4677 15C32.4677 23.2875 25.3221 30 16.5 30C7.67779 30 0.532227 23.2875 0.532227 15C0.532227 6.7125 7.67779 0 16.5 0C25.3221 0 32.4677 6.7125 32.4677 15ZM25.8145 15C25.8145 19.8375 21.6496 23.75 16.5 23.75C11.3504 23.75 7.18545 19.8375 7.18545 15C7.18545 10.1625 11.3504 6.25 16.5 6.25C21.6496 6.25 25.8145 10.1625 25.8145 15ZM14.8367 12.1875C14.1048 12.1875 13.506 12.75 13.506 13.4375V16.5625C13.506 17.25 14.1048 17.8125 14.8367 17.8125H18.1633C18.8951 17.8125 19.4939 17.25 19.4939 16.5625V13.4375C19.4939 12.75 18.8951 12.1875 18.1633 12.1875H14.8367Z" fill="#2D65F8"/>
</g>
<defs>
<clipPath id="clip0_179_3240">
<rect width="31.9355" height="30" fill="white" transform="translate(0.532227)"/>
</clipPath>
</defs>
</svg>
