<svg width="33" height="30" viewBox="0 0 33 30" fill="none" xmlns="http://www.w3.org/2000/svg">
<g clip-path="url(#clip0_179_3202)">
<path d="M30.9923 0.114746L18.4277 9.41618L20.7627 3.93293L30.9923 0.114746Z" fill="#E17726" stroke="#E17726" stroke-width="0.25" stroke-linecap="round" stroke-linejoin="round"/>
<path d="M2.00684 0.114746L14.4662 9.50231L12.2365 3.93293L2.00684 0.114746Z" fill="#E27625" stroke="#E27625" stroke-width="0.25" stroke-linecap="round" stroke-linejoin="round"/>
<path d="M26.4667 21.6841L23.127 26.7941L30.2848 28.7654L32.3327 21.7989L26.4667 21.6841Z" fill="#E27625" stroke="#E27625" stroke-width="0.25" stroke-linecap="round" stroke-linejoin="round"/>
<path d="M0.676758 21.7989L2.71504 28.7654L9.86336 26.7941L6.53322 21.6841L0.676758 21.7989Z" fill="#E27625" stroke="#E27625" stroke-width="0.25" stroke-linecap="round" stroke-linejoin="round"/>
<path d="M9.48067 13.0525L7.49023 16.0573L14.5716 16.3827L14.3323 8.75586L9.48067 13.0525Z" fill="#E27625" stroke="#E27625" stroke-width="0.25" stroke-linecap="round" stroke-linejoin="round"/>
<path d="M23.5282 13.0525L18.5904 8.66016L18.4277 16.3731L25.5091 16.0477L23.5282 13.0525Z" fill="#E27625" stroke="#E27625" stroke-width="0.25" stroke-linecap="round" stroke-linejoin="round"/>
<path d="M9.86328 26.794L14.1504 24.7271L10.4566 21.8467L9.86328 26.794Z" fill="#E27625" stroke="#E27625" stroke-width="0.25" stroke-linecap="round" stroke-linejoin="round"/>
<path d="M18.8486 24.7175L23.1261 26.794L22.5424 21.8467L18.8486 24.7175Z" fill="#E27625" stroke="#E27625" stroke-width="0.25" stroke-linecap="round" stroke-linejoin="round"/>
<path d="M23.1261 26.794L18.8486 24.7271L19.1931 27.5022L19.1549 28.6792L23.1261 26.794Z" fill="#D5BFB2" stroke="#D5BFB2" stroke-width="0.25" stroke-linecap="round" stroke-linejoin="round"/>
<path d="M9.86328 26.794L13.8441 28.6792L13.8154 27.5022L14.1504 24.7271L9.86328 26.794Z" fill="#D5BFB2" stroke="#D5BFB2" stroke-width="0.25" stroke-linecap="round" stroke-linejoin="round"/>
<path d="M13.9114 20.0096L10.3516 18.9665L12.8587 17.8086L13.9114 20.0096Z" fill="#233447" stroke="#233447" stroke-width="0.25" stroke-linecap="round" stroke-linejoin="round"/>
<path d="M19.0879 20.0097L20.131 17.8184L22.6573 18.9763L19.0879 20.0097Z" fill="#233447" stroke="#233447" stroke-width="0.25" stroke-linecap="round" stroke-linejoin="round"/>
<path d="M9.86335 26.7941L10.4854 21.6841L6.5332 21.7989L9.86335 26.7941Z" fill="#CC6228" stroke="#CC6228" stroke-width="0.25" stroke-linecap="round" stroke-linejoin="round"/>
<path d="M22.5137 21.6841L23.1261 26.7941L26.4658 21.7989L22.5137 21.6841Z" fill="#CC6228" stroke="#CC6228" stroke-width="0.25" stroke-linecap="round" stroke-linejoin="round"/>
<path d="M25.5091 16.0576L18.4277 16.383L19.088 20.0193L20.1311 17.828L22.6574 18.9858L25.5091 16.0576Z" fill="#CC6228" stroke="#CC6228" stroke-width="0.25" stroke-linecap="round" stroke-linejoin="round"/>
<path d="M10.361 18.9663L12.8682 17.8084L13.9113 19.9998L14.5716 16.3634L7.49023 16.0381L10.361 18.9663Z" fill="#CC6228" stroke="#CC6228" stroke-width="0.25" stroke-linecap="round" stroke-linejoin="round"/>
<path d="M7.49023 16.0576L10.4567 21.8471L10.361 18.9667L7.49023 16.0576Z" fill="#E27525" stroke="#E27525" stroke-width="0.25" stroke-linecap="round" stroke-linejoin="round"/>
<path d="M22.6578 18.9667L22.543 21.8471L25.5095 16.0576L22.6578 18.9667Z" fill="#E27525" stroke="#E27525" stroke-width="0.25" stroke-linecap="round" stroke-linejoin="round"/>
<path d="M14.5714 16.373L13.9111 20.0094L14.7437 24.2965L14.9255 18.641L14.5714 16.373Z" fill="#E27525" stroke="#E27525" stroke-width="0.25" stroke-linecap="round" stroke-linejoin="round"/>
<path d="M18.4275 16.373L18.083 18.6314L18.2553 24.2965L19.0878 20.0094L18.4275 16.373Z" fill="#E27525" stroke="#E27525" stroke-width="0.25" stroke-linecap="round" stroke-linejoin="round"/>
<path d="M19.0884 20.0097L18.2559 24.2967L18.8492 24.7178L22.5429 21.8374L22.6578 18.957L19.0884 20.0097Z" fill="#F5841F" stroke="#F5841F" stroke-width="0.25" stroke-linecap="round" stroke-linejoin="round"/>
<path d="M10.3613 18.9663L10.457 21.8467L14.1508 24.7271L14.7441 24.306L13.9116 20.0189L10.3613 18.9663Z" fill="#F5841F" stroke="#F5841F" stroke-width="0.25" stroke-linecap="round" stroke-linejoin="round"/>
<path d="M19.1647 28.6796L19.203 27.5026L18.8776 27.2251H14.1312L13.825 27.5026L13.8537 28.6796L9.86328 26.7944L11.2604 27.9332L14.0834 29.8758H18.9159L21.7484 27.9332L23.1264 26.7944L19.1647 28.6796Z" fill="#C0AC9D" stroke="#C0AC9D" stroke-width="0.25" stroke-linecap="round" stroke-linejoin="round"/>
<path d="M18.8489 24.7179L18.2556 24.2969H14.7437L14.1504 24.7179L13.8154 27.493L14.1216 27.2155H18.8681L19.1934 27.493L18.8489 24.7179Z" fill="#161616" stroke="#161616" stroke-width="0.25" stroke-linecap="round" stroke-linejoin="round"/>
<path d="M31.5281 10.0288L32.5807 4.89963L30.9922 0.124512L18.8486 9.11016L23.5185 13.0527L30.1214 14.9762L31.5759 13.2728L30.9443 12.8135L31.9491 11.8948L31.174 11.3015L32.1788 10.536L31.5281 10.0288Z" fill="#763E1A" stroke="#763E1A" stroke-width="0.25" stroke-linecap="round" stroke-linejoin="round"/>
<path d="M0.40918 4.89035L1.48095 10.0195L0.801524 10.5267L1.82545 11.2923L1.05033 11.8856L2.05511 12.8042L1.42353 13.2636L2.87808 14.9669L9.48095 13.0435L14.1508 9.10088L2.00727 0.115234L0.40918 4.89035Z" fill="#763E1A" stroke="#763E1A" stroke-width="0.25" stroke-linecap="round" stroke-linejoin="round"/>
<path d="M30.1219 14.9762L23.519 13.0527L25.5095 16.0575L22.543 21.847L26.476 21.7991H32.342L30.1219 14.9762Z" fill="#F5841F" stroke="#F5841F" stroke-width="0.25" stroke-linecap="round" stroke-linejoin="round"/>
<path d="M9.48059 13.0527L2.87771 14.9762L0.676758 21.7991H6.53322L10.4662 21.847L7.49972 16.0575L9.48059 13.0527Z" fill="#F5841F" stroke="#F5841F" stroke-width="0.25" stroke-linecap="round" stroke-linejoin="round"/>
<path d="M18.4277 16.373L18.8488 9.10985L20.7626 3.94238H12.2363L14.1502 9.10985L14.5713 16.373L14.7339 18.6505L14.7435 24.2965H18.2459L18.2555 18.6505L18.4277 16.373Z" fill="#F5841F" stroke="#F5841F" stroke-width="0.25" stroke-linecap="round" stroke-linejoin="round"/>
</g>
<defs>
<clipPath id="clip0_179_3202">
<rect width="32.4115" height="30" fill="white" transform="translate(0.293945)"/>
</clipPath>
</defs>
</svg>
