<svg width="27" height="30" viewBox="0 0 27 30" fill="none" xmlns="http://www.w3.org/2000/svg">
<g clip-path="url(#clip0_179_3244)">
<path d="M13.4653 1.40446L14.1623 0.510846C13.7441 0.191697 13.1864 0.191697 12.8379 0.510846L13.4653 1.40446ZM25.0363 4.85127H26.1516C26.1516 4.21297 25.6636 3.76617 25.0363 3.70234V4.85127ZM13.4653 28.596L12.8379 29.4896C13.1864 29.7449 13.6744 29.7449 14.0926 29.4896L13.4653 28.596ZM1.96391 4.85127V3.70234C1.33657 3.70234 0.848633 4.21297 0.848633 4.78744L1.96391 4.85127ZM12.8379 2.29808C17.8567 6.1917 23.5725 5.93638 25.0363 5.93638V3.70234C23.5028 3.70234 18.484 3.89382 14.1623 0.510846L12.8379 2.29808ZM23.921 4.85127C23.8513 10.0215 23.6422 13.6598 23.224 16.3406C22.8057 19.0215 22.2481 20.6172 21.4813 21.7023C20.7146 22.8513 19.7387 23.5534 18.3446 24.3832C16.8808 25.2768 15.1382 26.1704 12.9076 27.6385L14.1623 29.4896C16.2535 28.0853 18.0658 27.1917 19.5296 26.2981C21.0631 25.4045 22.3875 24.3832 23.3634 22.9151C24.3393 21.3832 25.0363 19.4683 25.4545 16.6598C25.8728 13.8513 26.0819 10.0853 26.2213 4.9151L23.921 4.85127ZM14.0926 27.6385C11.862 26.1704 10.0497 25.213 8.6556 24.3832C7.2615 23.5534 6.28563 22.8513 5.51887 21.7023C4.75212 20.5534 4.19448 19.0215 3.77625 16.3406C3.35802 13.6598 3.1489 10.0215 3.0792 4.85127H0.848633C0.918338 10.0853 1.19716 13.8513 1.61539 16.6598C2.03362 19.4683 2.73067 21.447 3.70654 22.9151C4.68241 24.3832 6.00681 25.4045 7.54032 26.2981C9.00413 27.1917 10.8165 28.0853 12.9076 29.4896L14.0926 27.6385ZM1.96391 5.93638C3.42772 5.93638 9.14354 6.1917 14.1623 2.29808L12.8379 0.574676C8.51619 3.95765 3.49743 3.76617 1.96391 3.76617V5.93638Z" fill="#0B65C6" stroke="#0B65C6" stroke-miterlimit="10"/>
</g>
<defs>
<clipPath id="clip0_179_3244">
<rect width="26" height="30" fill="white" transform="translate(0.5)"/>
</clipPath>
</defs>
</svg>
