<svg width="35" height="30" viewBox="0 0 35 30" fill="none" xmlns="http://www.w3.org/2000/svg">
<g clip-path="url(#clip0_179_3234)">
<path d="M7.16612 8.68759C12.8738 3.09893 22.1279 3.09893 27.8356 8.68759L28.523 9.35977C28.8089 9.63867 28.8089 10.0926 28.523 10.3715L26.1727 12.6728C26.0303 12.8129 25.7981 12.8129 25.6557 12.6728L24.7105 11.7474C20.7287 7.84853 14.273 7.84853 10.2901 11.7474L9.27718 12.7382C9.13481 12.8782 8.90258 12.8782 8.76021 12.7382L6.41225 10.4369C6.12634 10.158 6.12634 9.70402 6.41225 9.42512L7.16612 8.68759ZM32.6961 13.4454L34.7873 15.4934C35.0732 15.7723 35.0732 16.2263 34.7873 16.5052L25.357 25.7383C25.0711 26.0172 24.6089 26.0172 24.323 25.7383L17.6304 19.1857C17.5592 19.1157 17.4437 19.1157 17.3725 19.1857L10.6787 25.7383C10.3928 26.0172 9.93069 26.0172 9.64478 25.7383L0.214432 16.5052C-0.0714774 16.2263 -0.0714774 15.7723 0.214432 15.4934L2.30566 13.4454C2.59157 13.1664 3.05369 13.1664 3.3396 13.4454L10.0322 19.9991C10.1034 20.0691 10.2189 20.0691 10.2901 19.9991L16.9827 13.4454C17.2686 13.1664 17.7308 13.1664 18.0167 13.4454L24.7093 19.9991C24.7805 20.0691 24.896 20.0691 24.9672 19.9991L31.6598 13.4465C31.9481 13.1664 32.4102 13.1664 32.6961 13.4454Z" fill="#3B99FC"/>
</g>
<defs>
<clipPath id="clip0_179_3234">
<rect width="35" height="30" fill="white"/>
</clipPath>
</defs>
</svg>
