<svg width="24" height="24" viewBox="0 0 24 24" fill="none" xmlns="http://www.w3.org/2000/svg">
<path d="M12 2.25C6 2.25 1.125 6.375 1.125 12C1.125 17.625 2.25 21.75 6 21.75C9.75 21.75 8.625 13.125 12 13.125C15.375 13.125 14.25 21.75 18 21.75C21.75 21.75 22.875 17.625 22.875 12C22.875 6.375 18 2.25 12 2.25Z" fill="#E7E7E7"/>
<path d="M12 8.625C13.2426 8.625 14.25 7.61764 14.25 6.375C14.25 5.13236 13.2426 4.125 12 4.125C10.7574 4.125 9.75 5.13236 9.75 6.375C9.75 7.61764 10.7574 8.625 12 8.625Z" fill="#737373"/>
<path d="M18 12.375C19.2426 12.375 20.25 11.3676 20.25 10.125C20.25 8.88236 19.2426 7.875 18 7.875C16.7574 7.875 15.75 8.88236 15.75 10.125C15.75 11.3676 16.7574 12.375 18 12.375Z" fill="#737373"/>
<path d="M19.125 18.375C20.1605 18.375 21 17.5355 21 16.5C21 15.4645 20.1605 14.625 19.125 14.625C18.0895 14.625 17.25 15.4645 17.25 16.5C17.25 17.5355 18.0895 18.375 19.125 18.375Z" fill="#737373"/>
<path d="M3.375 22.875H1.125V3.375L2.25 1.125L3.375 3.375V22.875Z" fill="#4AC3ED"/>
<path d="M1.125 3.375H3.375V4.125H1.125V3.375Z" fill="#454A6D"/>
<path d="M1.125 20.625H3.375V21.375H1.125V20.625Z" fill="#454A6D"/>
<path d="M6.37519 22.875C5.94694 22.875 5.58656 22.5555 5.53481 22.1306L4.46869 13.335C4.24369 11.478 4.51331 9.59438 5.25019 7.875H7.50019C8.23706 9.59438 8.50669 11.478 8.28169 13.335L7.21556 22.1302C7.16381 22.5555 6.80344 22.875 6.37519 22.875Z" fill="#76CC7A"/>
<path d="M7.5 7.875C7.5 7.875 8.25 6.75 8.25 5.625C8.25 4.5 6.375 2.625 6.375 2.625C6.375 2.625 4.5 4.5 4.5 5.625C4.5 6.75 5.25 7.875 5.25 7.875H7.5Z" fill="#E89D43"/>
</svg>
