<svg width="20" height="15" viewBox="0 0 20 15" fill="none" xmlns="http://www.w3.org/2000/svg">
<path d="M18.2409 0.817383C16.865 0.817383 2.40112 0.817383 1.75724 0.817383C0.788031 0.817383 -0.000488281 1.60594 -0.000488281 2.5752V12.7314C-0.000488281 13.7007 0.788031 14.4893 1.75724 14.4893H18.2409C19.2101 14.4893 19.9986 13.7007 19.9986 12.7314V2.5752C19.9986 1.60594 19.2101 0.817383 18.2409 0.817383ZM4.99929 4.48926H3.12437C2.80079 4.48926 2.53846 4.22691 2.53846 3.90332C2.53846 3.57973 2.80079 3.31738 3.12437 3.31738H4.99929C5.32286 3.31738 5.5852 3.57973 5.5852 3.90332C5.5852 4.22691 5.32286 4.48926 4.99929 4.48926ZM9.99906 11.9893C7.60831 11.9893 5.66332 10.0442 5.66332 7.65332C5.66332 5.26246 7.60831 3.31738 9.99906 3.31738C12.3898 3.31738 14.3348 5.26246 14.3348 7.65332C14.3348 10.0442 12.3898 11.9893 9.99906 11.9893Z" fill="white"/>
</svg>
