<svg width="110" height="91" viewBox="0 0 110 91" fill="none" xmlns="http://www.w3.org/2000/svg">
<path d="M36.5043 8.75453L45.4122 4.53819L45.7331 5.21608L50.187 3.10791C50.9442 2.74951 51.7313 2.48022 52.5334 2.29998L52.369 1.56823C54.101 1.17907 55.899 1.17907 57.631 1.56823L57.4666 2.29998C58.2687 2.48022 59.0558 2.74951 59.813 3.10791L64.2669 5.21608L64.5878 4.53819L73.4957 8.75453L73.1748 9.43242L82.0826 13.6488L82.4035 12.9709L91.3114 17.1872L90.9905 17.8651L95.4444 19.9733C96.4179 20.434 97.3037 21.0233 98.0857 21.7153L98.5827 21.1536C100.284 22.6585 101.525 24.6189 102.157 26.8002L101.437 27.0091C101.728 28.0119 101.881 29.0647 101.881 30.1417V33.8789H102.631V41.3534H101.881V48.8278H102.631V56.3023H101.881V60.0395C101.881 61.1165 101.728 62.1693 101.437 63.1721L102.157 63.381C101.525 65.5623 100.284 67.5227 98.5827 69.0277L98.0857 68.466C97.3037 69.1579 96.4179 69.7472 95.4444 70.208L90.9905 72.3161L91.3114 72.994L82.4035 77.2104L82.0826 76.5325L73.1748 80.7488L73.4957 81.4267L64.5878 85.643L64.2669 84.9651L59.813 87.0733C59.0558 87.4317 58.2687 87.701 57.4666 87.8812L57.631 88.613C55.899 89.0022 54.101 89.0022 52.369 88.613L52.5334 87.8812C51.7313 87.701 50.9442 87.4317 50.187 87.0733L45.7331 84.9651L45.4122 85.643L36.5043 81.4267L36.8252 80.7488L27.9174 76.5325L27.5965 77.2104L18.6886 72.994L19.0095 72.3161L14.5556 70.208C13.5821 69.7472 12.6963 69.1579 11.9143 68.466L11.4173 69.0277C9.71636 67.5227 8.47536 65.5623 7.84278 63.381L8.56311 63.1721C8.27228 62.1693 8.1186 61.1165 8.1186 60.0395V56.3023H7.3686V48.8278H8.1186V41.3534H7.3686V33.879H8.1186V30.1417C8.1186 29.0647 8.27228 28.0119 8.56311 27.0091L7.84278 26.8002C8.47536 24.6189 9.71636 22.6585 11.4173 21.1536L11.9143 21.7153C12.6963 21.0233 13.5821 20.434 14.5556 19.9733L19.0095 17.8651L18.6886 17.1872L27.5965 12.9709L27.9174 13.6488L36.8252 9.43242L36.5043 8.75453Z" stroke="white" stroke-width="1.5" stroke-dasharray="8 8"/>
<path d="M54.9987 49.8174C56.7452 49.8174 58.161 48.4008 58.161 46.6533C58.161 44.9059 56.7452 43.4893 54.9987 43.4893C53.2522 43.4893 51.8364 44.9059 51.8364 46.6533C51.8364 48.4008 53.2522 49.8174 54.9987 49.8174Z" fill="white"/>
<path d="M59.6182 38.6455L59.416 37.6345C59.3069 37.0886 58.8238 36.6924 58.2673 36.6924H51.7303C51.1738 36.6924 50.6907 37.0886 50.5816 37.6345L50.3794 38.6455H59.6182Z" fill="white"/>
<path d="M63.2409 39.8174C61.865 39.8174 47.4011 39.8174 46.7572 39.8174C45.788 39.8174 44.9995 40.6059 44.9995 41.5752V51.7314C44.9995 52.7007 45.788 53.4893 46.7572 53.4893H63.2409C64.2101 53.4893 64.9986 52.7007 64.9986 51.7314V41.5752C64.9986 40.6059 64.2101 39.8174 63.2409 39.8174ZM49.9993 43.4893H48.1244C47.8008 43.4893 47.5385 43.2269 47.5385 42.9033C47.5385 42.5797 47.8008 42.3174 48.1244 42.3174H49.9993C50.3229 42.3174 50.5852 42.5797 50.5852 42.9033C50.5852 43.2269 50.3229 43.4893 49.9993 43.4893ZM54.9991 50.9893C52.6083 50.9893 50.6633 49.0442 50.6633 46.6533C50.6633 44.2625 52.6083 42.3174 54.9991 42.3174C57.3898 42.3174 59.3348 44.2625 59.3348 46.6533C59.3348 49.0442 57.3898 50.9893 54.9991 50.9893Z" fill="white"/>
</svg>
