<svg width="32" height="48" viewBox="0 0 32 48" fill="none" xmlns="http://www.w3.org/2000/svg">
<path d="M8.94326 15.0575C8.42256 14.5368 7.57834 14.5368 7.05764 15.0575C6.53694 15.5782 6.53694 16.4224 7.05764 16.9431L14.1148 24.0003L7.05752 31.0575C6.53682 31.5782 6.53682 32.4224 7.05752 32.9431C7.57822 33.4638 8.42244 33.4638 8.94313 32.9431L16.0004 25.8859L23.0576 32.9431C23.5783 33.4638 24.4226 33.4638 24.9433 32.9431C25.464 32.4224 25.464 31.5782 24.9433 31.0575L17.886 24.0003L24.9431 16.9431C25.4638 16.4224 25.4638 15.5782 24.9431 15.0575C24.4224 14.5368 23.5782 14.5368 23.0575 15.0575L16.0004 22.1146L8.94326 15.0575Z" fill="#9B9B9B"/>
</svg>
