<svg width="24" height="24" viewBox="0 0 24 24" fill="none" xmlns="http://www.w3.org/2000/svg">
<g clip-path="url(#clip0_179_3055)">
<path d="M24 2.15625C24 0.991266 23.0556 0.046875 21.8906 0.046875H2.10938C0.944391 0.046875 0 0.991266 0 2.15625V6.375L0.46875 6.84375H23.5312C23.7143 6.6607 23.817 6.55805 24 6.375V2.15625Z" fill="url(#paint0_linear_179_3055)"/>
<path d="M20.4375 2.85938H16.2188C15.8304 2.85938 15.5156 3.17419 15.5156 3.5625C15.5156 3.95081 15.8304 4.26562 16.2188 4.26562H20.4375C20.8258 4.26562 21.1406 3.95081 21.1406 3.5625C21.1406 3.17419 20.8258 2.85938 20.4375 2.85938Z" fill="#0052C2"/>
<path d="M9.1875 4.26562C9.57583 4.26562 9.89062 3.95083 9.89062 3.5625C9.89062 3.17417 9.57583 2.85938 9.1875 2.85938C8.79917 2.85938 8.48438 3.17417 8.48438 3.5625C8.48438 3.95083 8.79917 4.26562 9.1875 4.26562Z" fill="#F03800"/>
<path d="M6.375 4.26562C6.76333 4.26562 7.07812 3.95083 7.07812 3.5625C7.07812 3.17417 6.76333 2.85938 6.375 2.85938C5.98667 2.85938 5.67188 3.17417 5.67188 3.5625C5.67188 3.95083 5.98667 4.26562 6.375 4.26562Z" fill="#FDBF00"/>
<path d="M3.5625 4.26562C3.95083 4.26562 4.26562 3.95083 4.26562 3.5625C4.26562 3.17417 3.95083 2.85938 3.5625 2.85938C3.17417 2.85938 2.85938 3.17417 2.85938 3.5625C2.85938 3.95083 3.17417 4.26562 3.5625 4.26562Z" fill="#37D742"/>
<path d="M0 6.375V21.8438C0 23.0069 0.946266 23.9531 2.10938 23.9531H21.8906C23.0537 23.9531 24 23.0069 24 21.8438V6.375H0Z" fill="url(#paint1_linear_179_3055)"/>
<path d="M14.3861 9.24404C14.0291 9.09108 13.6158 9.25641 13.4628 9.61332L9.24406 19.4571C9.09106 19.814 9.25643 20.2274 9.61334 20.3803C9.97038 20.5333 10.3837 20.3678 10.5366 20.011L14.7553 10.1673C14.9083 9.81033 14.743 9.39699 14.3861 9.24404Z" fill="#FF641A"/>
<path d="M14.7558 10.1674L12 16.5977V13.0267L13.463 9.61331C13.6162 9.25659 14.0292 9.09112 14.3864 9.24394C14.7431 9.39722 14.9086 9.81018 14.7558 10.1674Z" fill="#F03800"/>
<path d="M8.22078 17.0759L5.39149 14.8125L8.22078 12.549C8.52406 12.3065 8.57318 11.864 8.3306 11.5608C8.08798 11.2575 7.64543 11.2084 7.34234 11.451L3.82671 14.2635C3.4752 14.5446 3.47496 15.0802 3.82671 15.3616L7.34234 18.1741C7.64557 18.4167 8.08812 18.3675 8.3306 18.0643C8.57318 17.761 8.52406 17.3185 8.22078 17.0759Z" fill="#FF641A"/>
<path d="M20.1736 14.2635L16.658 11.451C16.3548 11.2084 15.9123 11.2576 15.6697 11.5608C15.4272 11.864 15.4763 12.3065 15.7796 12.5491L18.6088 14.8126L15.7796 17.076C15.4763 17.3186 15.4272 17.761 15.6697 18.0643C15.9126 18.3678 16.3552 18.4164 16.658 18.1741L20.1736 15.3616C20.5251 15.0804 20.5254 14.5448 20.1736 14.2635Z" fill="#F03800"/>
</g>
<defs>
<linearGradient id="paint0_linear_179_3055" x1="1.53337e-07" y1="3" x2="24" y2="3.5" gradientUnits="userSpaceOnUse">
<stop stop-color="#0052C2"/>
<stop offset="1" stop-color="#003481"/>
</linearGradient>
<linearGradient id="paint1_linear_179_3055" x1="-3.01554e-07" y1="15" x2="24" y2="15" gradientUnits="userSpaceOnUse">
<stop stop-color="#E0F4FF"/>
<stop offset="1" stop-color="#B8E0F5"/>
</linearGradient>
<clipPath id="clip0_179_3055">
<rect width="24" height="24" fill="white"/>
</clipPath>
</defs>
</svg>
