<svg width="25" height="24" viewBox="0 0 25 24" fill="none" xmlns="http://www.w3.org/2000/svg">
<path d="M4.625 7.875H20.375V17.625H4.625V7.875Z" fill="#3C4272"/>
<path d="M1.625 7.125L12.5 1.125L23.375 7.125L12.5 13.125L1.625 7.125Z" fill="#4B517A"/>
<path d="M1.625 17.625H23.375V22.875H1.625V17.625Z" fill="#EAE8E5"/>
<path d="M17.75 17.625H19.625V22.875H17.75V17.625Z" fill="#E89D43"/>
<path d="M17.75 19.125H14L15.125 20.25L14 21.375H17.75V19.125Z" fill="#E08831"/>
<path d="M22.25 7.125H23V12.75H22.25V7.125Z" fill="#4B517A"/>
<path d="M23.375 15.75H21.875V12.75C21.875 12.3356 22.2106 12 22.625 12C23.0394 12 23.375 12.3356 23.375 12.75V15.75Z" fill="#E89D43"/>
<path d="M4.625 15.375H7.25V16.125H4.625V15.375Z" fill="#4B517A"/>
<path d="M8 15.375H8.75V16.125H8V15.375Z" fill="#4B517A"/>
<path d="M9.5 15.375H10.25V16.125H9.5V15.375Z" fill="#4B517A"/>
<path d="M11 15.375H11.75V16.125H11V15.375Z" fill="#4B517A"/>
<path d="M12.5 7.875C13.1213 7.875 13.625 7.53921 13.625 7.125C13.625 6.71079 13.1213 6.375 12.5 6.375C11.8787 6.375 11.375 6.71079 11.375 7.125C11.375 7.53921 11.8787 7.875 12.5 7.875Z" fill="#4B517A"/>
</svg>
