<svg width="22" height="22" viewBox="0 0 22 22" fill="none" xmlns="http://www.w3.org/2000/svg">
<path fill-rule="evenodd" clip-rule="evenodd" d="M20.1663 11.0002C20.1663 16.0628 16.0623 20.1668 10.9997 20.1668C5.93706 20.1668 1.83301 16.0628 1.83301 11.0002C1.83301 5.93755 5.93706 1.8335 10.9997 1.8335C16.0623 1.8335 20.1663 5.93755 20.1663 11.0002ZM10.9997 10.0835C11.5059 10.0835 11.9163 10.4939 11.9163 11.0002V15.5843C11.9163 16.0906 11.5059 16.501 10.9997 16.501C10.4934 16.501 10.083 16.0906 10.083 15.5843V11.0002C10.083 10.4939 10.4934 10.0835 10.9997 10.0835ZM10.9997 8.25016C11.5059 8.25016 11.9163 7.83976 11.9163 7.3335C11.9163 6.82723 11.5059 6.41683 10.9997 6.41683C10.4934 6.41683 10.083 6.82723 10.083 7.3335C10.083 7.83976 10.4934 8.25016 10.9997 8.25016Z" fill="white"/>
</svg>
