<svg width="24" height="24" viewBox="0 0 24 24" fill="none" xmlns="http://www.w3.org/2000/svg">
<path d="M20.25 5.625L12.75 4.875V6.375L20.25 5.625Z" fill="url(#paint0_linear_179_2994)"/>
<path d="M3.75 5.625L11.25 4.875V6.375L3.75 5.625Z" fill="url(#paint1_linear_179_2994)"/>
<path d="M20.25 6.75C20.8713 6.75 21.375 6.24632 21.375 5.625C21.375 5.00368 20.8713 4.5 20.25 4.5C19.6287 4.5 19.125 5.00368 19.125 5.625C19.125 6.24632 19.6287 6.75 20.25 6.75Z" fill="url(#paint2_linear_179_2994)"/>
<path d="M15.375 20.25H12.75V6.375H11.25V20.25H8.625L7.5 21.375V22.875H16.5V21.375L15.375 20.25Z" fill="url(#paint3_linear_179_2994)"/>
<path d="M10.875 4.875H13.125L12 1.125L10.875 4.875Z" fill="url(#paint4_linear_179_2994)"/>
<path d="M22.125 14.25H18.375C17.9606 14.25 17.625 13.9144 17.625 13.5V12.375H22.875V13.5C22.875 13.9144 22.5394 14.25 22.125 14.25Z" fill="url(#paint5_linear_179_2994)"/>
<path d="M22.5 12.3748H21.75V11.6946L20.25 7.79458L18.75 11.6946V12.3748H18V11.5551L20.25 5.70508L22.5 11.5551V12.3748Z" fill="url(#paint6_linear_179_2994)"/>
<path d="M3.75 6.75C4.37132 6.75 4.875 6.24632 4.875 5.625C4.875 5.00368 4.37132 4.5 3.75 4.5C3.12868 4.5 2.625 5.00368 2.625 5.625C2.625 6.24632 3.12868 6.75 3.75 6.75Z" fill="url(#paint7_linear_179_2994)"/>
<path d="M12 7.5C13.0355 7.5 13.875 6.66053 13.875 5.625C13.875 4.58947 13.0355 3.75 12 3.75C10.9645 3.75 10.125 4.58947 10.125 5.625C10.125 6.66053 10.9645 7.5 12 7.5Z" fill="url(#paint8_linear_179_2994)"/>
<path d="M1.875 14.25H5.625C6.03937 14.25 6.375 13.9144 6.375 13.5V12.375H1.125V13.5C1.125 13.9144 1.46062 14.25 1.875 14.25Z" fill="url(#paint9_linear_179_2994)"/>
<path d="M6 12.3748H5.25V11.6946L3.75 7.79458L2.25 11.6946V12.3748H1.5V11.5551L3.75 5.70508L6 11.5551V12.3748Z" fill="url(#paint10_linear_179_2994)"/>
<defs>
<linearGradient id="paint0_linear_179_2994" x1="16.5" y1="4.875" x2="16.5" y2="6.375" gradientUnits="userSpaceOnUse">
<stop stop-color="#FFBD6D"/>
<stop offset="1" stop-color="#FFB051"/>
</linearGradient>
<linearGradient id="paint1_linear_179_2994" x1="7.5" y1="4.875" x2="7.5" y2="6.375" gradientUnits="userSpaceOnUse">
<stop stop-color="#FFBD6D"/>
<stop offset="1" stop-color="#FFB051"/>
</linearGradient>
<linearGradient id="paint2_linear_179_2994" x1="20.25" y1="4.5" x2="20.25" y2="6.75" gradientUnits="userSpaceOnUse">
<stop stop-color="white"/>
<stop offset="1" stop-color="#FFE7AB"/>
</linearGradient>
<linearGradient id="paint3_linear_179_2994" x1="12" y1="6.375" x2="12" y2="22.875" gradientUnits="userSpaceOnUse">
<stop stop-color="#FFBD6D"/>
<stop offset="1" stop-color="#FFB051"/>
</linearGradient>
<linearGradient id="paint4_linear_179_2994" x1="12" y1="1.125" x2="12" y2="4.875" gradientUnits="userSpaceOnUse">
<stop stop-color="#FFBD6D"/>
<stop offset="1" stop-color="#FFB051"/>
</linearGradient>
<linearGradient id="paint5_linear_179_2994" x1="20.25" y1="12.375" x2="20.25" y2="14.25" gradientUnits="userSpaceOnUse">
<stop stop-color="#FFBD6D"/>
<stop offset="1" stop-color="#FFB051"/>
</linearGradient>
<linearGradient id="paint6_linear_179_2994" x1="20.25" y1="5.70508" x2="20.25" y2="12.3748" gradientUnits="userSpaceOnUse">
<stop stop-color="white"/>
<stop offset="1" stop-color="#FFE7AB"/>
</linearGradient>
<linearGradient id="paint7_linear_179_2994" x1="3.75" y1="4.5" x2="3.75" y2="6.75" gradientUnits="userSpaceOnUse">
<stop stop-color="white"/>
<stop offset="1" stop-color="#FFE7AB"/>
</linearGradient>
<linearGradient id="paint8_linear_179_2994" x1="12" y1="3.75" x2="12" y2="7.5" gradientUnits="userSpaceOnUse">
<stop stop-color="white"/>
<stop offset="1" stop-color="#FFE7AB"/>
</linearGradient>
<linearGradient id="paint9_linear_179_2994" x1="3.75" y1="12.375" x2="3.75" y2="14.25" gradientUnits="userSpaceOnUse">
<stop stop-color="#FFBD6D"/>
<stop offset="1" stop-color="#FFB051"/>
</linearGradient>
<linearGradient id="paint10_linear_179_2994" x1="3.75" y1="5.70508" x2="3.75" y2="12.3748" gradientUnits="userSpaceOnUse">
<stop stop-color="white"/>
<stop offset="1" stop-color="#FFE7AB"/>
</linearGradient>
</defs>
</svg>
