<svg width="24" height="24" viewBox="0 0 24 24" fill="none" xmlns="http://www.w3.org/2000/svg">
<path d="M1.125 1.125L1.875 7.125L1.125 15L1.875 18L1.125 22.875L5.625 22.125L6.375 22.875L13.5 22.125L19.5 22.875L19.125 15.375L19.5 13.5L18.75 5.25L20.25 1.125L14.25 1.5L10.875 1.125L9.375 1.5L1.125 1.125Z" fill="url(#paint0_linear_179_3081)"/>
<path d="M13.125 17.25H22.875V22.875H13.125V17.25Z" fill="#454A6D"/>
<path d="M15.75 15.75H20.25V17.25H15.75V15.75Z" fill="#33385C"/>
<path d="M14.625 13.5H21.375V15.75H14.625V13.5Z" fill="#454A6D"/>
<path d="M7.125 15.75V12.75L16.5 3.375V5.64713C16.5 8.034 15.5516 10.3234 13.8641 12.0112L10.125 15.75H7.125Z" fill="#FFFCF9"/>
<path d="M4.23291 18.1089L14.3564 7.98535L14.8867 8.5156L4.76316 18.6391L4.23291 18.1089Z" fill="#E89D43"/>
<path d="M9.75012 19.9508L8.62512 19.2008L7.50012 19.9508L6.37512 19.2008L5.45824 19.8121L5.04199 19.1881L6.37512 18.2993L7.50012 19.0493L8.62512 18.2993L9.75012 19.0493L10.8751 18.2993L12.2082 19.1881L11.792 19.8121L10.8751 19.2008L9.75012 19.9508Z" fill="#DBD8D5"/>
<path d="M4.00635 7.48111L2.99985 7.14548L1.99335 7.48111L1.75635 6.76936L2.99985 6.35498L4.24335 6.76936L4.00635 7.48111Z" fill="#DBD8D5"/>
<path d="M1.03271 15.3711L1.21496 14.6436L2.71471 15.0193L2.53246 15.7468L1.03271 15.3711Z" fill="#DBD8D5"/>
<path d="M11.6057 3.86864L10.8947 3.63164L11.2202 2.65402L10.5396 1.29277L11.2108 0.95752L12.0302 2.59627L11.6057 3.86864Z" fill="#DBD8D5"/>
<defs>
<linearGradient id="paint0_linear_179_3081" x1="1" y1="1" x2="20" y2="24" gradientUnits="userSpaceOnUse">
<stop stop-color="#E7E7E7"/>
<stop offset="1" stop-color="#B7B7B7"/>
</linearGradient>
</defs>
</svg>
