<svg width="25" height="25" viewBox="0 0 25 25" fill="none" xmlns="http://www.w3.org/2000/svg">
<path d="M24.8746 10.6823C24.63 8.74517 23.8965 6.983 22.7888 5.3793C21.8484 4.01823 20.6492 2.85605 19.2597 1.95924C17.8702 1.06242 16.3178 0.448555 14.6911 0.152741C13.6788 -0.0308186 12.6586 -0.00695647 11.6347 0.0144588C10.5826 0.0358741 9.57095 0.255534 8.58188 0.581659C6.40603 1.28983 4.46831 2.58667 2.98309 4.32872C1.44264 6.11476 0.492088 8.17614 0.0971952 10.4982C0.0434017 10.8157 0.0544047 11.14 0.004279 11.4582C0.00376304 11.4734 0.00233412 11.4885 0 11.5035V11.7292C0.0354547 11.7617 0.0220066 11.8051 0.0250631 11.8443C0.016505 11.9055 0.0464579 11.9666 0 12.0223V24.4144C0.0537934 24.751 0.248794 24.9462 0.585003 25H12.9178C12.9728 24.9529 13.04 24.9835 13.1011 24.9749H13.1947C13.2344 24.9749 13.2772 24.9645 13.3102 25H13.4074C13.4201 24.9901 13.4346 24.9827 13.4501 24.9784C13.4657 24.9741 13.4819 24.9729 13.4979 24.9749C14.9613 24.948 16.3324 24.5368 17.6516 23.9415C19.3234 23.1861 20.8071 22.0692 21.996 20.671C23.0241 19.4712 23.8187 18.0893 24.3385 16.5966C25.0201 14.6711 25.1282 12.6874 24.8746 10.6823Z" fill="url(#paint0_linear_1_8642)"/>
<path d="M10.9976 8.00301C11.8648 8.00301 12.7325 8.00301 13.5997 8.00301C13.8861 8.00301 14.0722 8.68081 13.9731 9.35392C13.9158 9.7343 13.807 9.94562 13.6541 9.9918C13.6192 9.99935 13.5839 10.0015 13.5487 9.99806C11.8495 9.99806 10.1503 9.99806 8.4511 9.99806C8.39594 10.0046 8.3404 9.99447 8.28844 9.96832C8.10343 9.85249 7.98258 9.3954 8.00205 8.90231C8.02153 8.40922 8.17388 8.01319 8.37435 8.00614C8.69052 7.99519 9.00725 8.00223 9.32342 8.00223L10.9976 8.00301Z" fill="#9B9B9B"/>
<path d="M14.9978 11.0027C15.865 11.0027 16.7322 11.0027 17.5994 11.0027C17.8858 11.0027 18.0726 11.6815 17.9729 12.354C17.9156 12.7353 17.8074 12.9467 17.6544 12.9921C17.6196 12.9997 17.5842 13.0018 17.549 12.9984H12.4511C12.3959 13.0043 12.3404 12.9939 12.2885 12.9679C12.1034 12.852 11.9826 12.3947 12.0021 11.9015C12.0215 11.4082 12.1739 11.0121 12.3744 11.005C12.6906 10.9941 13.0045 11.005 13.3235 11.0011L14.9978 11.0027Z" fill="#9B9B9B"/>
<path d="M10.9976 14.0027C11.8648 14.0027 12.7325 14.0027 13.5997 14.0027C13.8861 14.0027 14.0722 14.6815 13.9731 15.354C13.9158 15.7353 13.807 15.9467 13.6541 15.9921C13.6192 15.9997 13.5839 16.0018 13.5487 15.9984H8.4511C8.3959 16.0043 8.34042 15.9939 8.28844 15.9679C8.10343 15.852 7.98258 15.3947 8.00205 14.9015C8.02153 14.4082 8.17388 14.0121 8.37435 14.005C8.69052 13.9941 9.00725 14.005 9.32342 14.0011L10.9976 14.0027Z" fill="#9B9B9B"/>
<path d="M14.9978 17.0027C15.865 17.0027 16.7322 17.0027 17.5994 17.0027C17.8858 17.0027 18.0726 17.6815 17.9729 18.354C17.9156 18.7353 17.8074 18.9467 17.6544 18.9921C17.6196 18.9997 17.5842 19.0018 17.549 18.9984H12.4511C12.3959 19.0043 12.3404 18.9939 12.2885 18.9679C12.1034 18.852 11.9826 18.3947 12.0021 17.9015C12.0215 17.4082 12.1739 17.0121 12.3744 17.005C12.6906 16.9941 13.0045 17.005 13.3235 17.0011L14.9978 17.0027Z" fill="#9B9B9B"/>
<defs>
<linearGradient id="paint0_linear_1_8642" x1="0" y1="0" x2="25" y2="25" gradientUnits="userSpaceOnUse">
<stop stop-color="#7A7A7A"/>
<stop offset="1" stop-color="#494949"/>
</linearGradient>
</defs>
</svg>
