<svg width="40" height="40" viewBox="0 0 40 40" fill="none" xmlns="http://www.w3.org/2000/svg">
<path d="M39.7993 17.0917C39.4081 13.9923 38.2344 11.1728 36.4622 8.60688C34.9575 6.42916 33.0387 4.56968 30.8156 3.13478C28.5924 1.69987 26.1084 0.717688 23.5058 0.244386C21.8861 -0.0493098 20.2537 -0.0111304 18.6155 0.0231341C16.9322 0.0573986 15.3135 0.408855 13.731 0.930654C10.2496 2.06372 7.14929 4.13868 4.77294 6.92596C2.30823 9.78362 0.78734 13.0818 0.155512 16.7971C0.0694428 17.3052 0.0870475 17.824 0.0068464 18.3331C0.00602086 18.3574 0.0037346 18.3816 0 18.4055V18.7668C0.0567276 18.8187 0.0352106 18.8882 0.0401009 18.9508C0.026408 19.0487 0.0743327 19.1466 0 19.2357V39.0631C0.0860695 39.6016 0.398071 39.9138 0.936005 40H20.6684C20.7564 39.9246 20.864 39.9736 20.9618 39.9599H21.1115C21.175 39.9599 21.2435 39.9432 21.2963 40H21.4518C21.4721 39.9841 21.4954 39.9724 21.5202 39.9655C21.545 39.9586 21.571 39.9567 21.5966 39.9599C23.9381 39.9168 26.1319 39.2589 28.2425 38.3064C30.9174 37.0978 33.2914 35.3107 35.1936 33.0737C36.8386 31.154 38.1098 28.9428 38.9415 26.5546C40.0321 23.4737 40.2052 20.2999 39.7993 17.0917Z" fill="#454545"/>
<path d="M17.597 12.8046C18.9844 12.8046 20.3728 12.8046 21.7603 12.8046C22.2185 12.8046 22.5163 13.8891 22.3578 14.9661C22.2661 15.5747 22.092 15.9128 21.8473 15.9867C21.7916 15.9988 21.735 16.0021 21.6787 15.9967C18.96 15.9967 16.2413 15.9967 13.5225 15.9967C13.4343 16.0072 13.3454 15.991 13.2623 15.9491C12.9663 15.7638 12.7729 15.0324 12.8041 14.2435C12.8352 13.4546 13.079 12.8209 13.3997 12.8096C13.9056 12.7921 14.4124 12.8034 14.9183 12.8034L17.597 12.8046Z" fill="white"/>
<path d="M23.9971 17.6039C25.3847 17.6039 26.7722 17.6039 28.1598 17.6039C28.618 17.6039 28.9168 18.69 28.7573 19.7661C28.6657 20.3761 28.4925 20.7144 28.2478 20.787C28.192 20.7991 28.1354 20.8025 28.0791 20.797H19.9225C19.8342 20.8065 19.7454 20.7898 19.6622 20.7482C19.3662 20.5628 19.1728 19.8312 19.204 19.042C19.2351 18.2528 19.4789 17.6189 19.7997 17.6077C20.3056 17.5901 20.8078 17.6077 21.3183 17.6014L23.9971 17.6039Z" fill="white"/>
<path d="M17.597 22.4047C18.9844 22.4047 20.3728 22.4047 21.7603 22.4047C22.2185 22.4047 22.5163 23.4908 22.3578 24.5668C22.2661 25.1769 22.092 25.5151 21.8473 25.5878C21.7916 25.5999 21.735 25.6032 21.6787 25.5978H13.5225C13.4342 25.6073 13.3455 25.5906 13.2623 25.549C12.9663 25.3636 12.7729 24.632 12.8041 23.8428C12.8352 23.0536 13.079 22.4197 13.3997 22.4084C13.9056 22.3909 14.4124 22.4084 14.9183 22.4022L17.597 22.4047Z" fill="white"/>
<path d="M23.9971 27.2045C25.3847 27.2045 26.7722 27.2045 28.1598 27.2045C28.618 27.2045 28.9168 28.2906 28.7573 29.3667C28.6657 29.9767 28.4925 30.3149 28.2478 30.3876C28.192 30.3997 28.1354 30.403 28.0791 30.3976H19.9225C19.8342 30.4071 19.7454 30.3904 19.6622 30.3488C19.3662 30.1634 19.1728 29.4318 19.204 28.6426C19.2351 27.8534 19.4789 27.2195 19.7997 27.2082C20.3056 27.1907 20.8078 27.2082 21.3183 27.202L23.9971 27.2045Z" fill="white"/>
</svg>
