<svg width="24" height="24" viewBox="0 0 24 24" fill="none" xmlns="http://www.w3.org/2000/svg">
<path d="M5.625 9.75H22.875V11.625H5.625V9.75Z" fill="#EAE8E5"/>
<path d="M5.625 11.625H22.875V13.5H5.625V11.625Z" fill="#DBD8D5"/>
<path d="M5.625 13.5H22.875V15.375H5.625V13.5Z" fill="#EAE8E5"/>
<path d="M5.625 17.25H22.875V19.125H5.625V17.25Z" fill="#EAE8E5"/>
<path d="M5.625 15.375H22.875V17.25H5.625V15.375Z" fill="#DBD8D5"/>
<path d="M1.125 21H5.625V22.875H1.125V21Z" fill="#E89D43"/>
<path d="M1.125 19.125H5.625V21H1.125V19.125Z" fill="#E08831"/>
<path d="M1.125 17.25H5.625V19.125H1.125V17.25Z" fill="#E89D43"/>
<path d="M1.125 15.375H5.625V17.25H1.125V15.375Z" fill="#E08831"/>
<path d="M1.125 13.5H5.625V15.375H1.125V13.5Z" fill="#E89D43"/>
<path d="M1.125 11.625H5.625V13.5H1.125V11.625Z" fill="#E08831"/>
<path d="M1.125 9.75H5.625V11.625H1.125V9.75Z" fill="#E89D43"/>
<path d="M5.625 21H10.125V22.875H5.625V21Z" fill="#E08831"/>
<path d="M5.625 19.125H10.125V21H5.625V19.125Z" fill="#E89D43"/>
<path d="M5.625 17.25H10.125V19.125H5.625V17.25Z" fill="#E08831"/>
<path d="M5.625 15.375H10.125V17.25H5.625V15.375Z" fill="#E89D43"/>
<path d="M5.625 1.125H22.875V9.75H5.625V1.125Z" fill="#76CC7A"/>
<path d="M12 9.75H16.5V19.125H12V9.75Z" fill="#454A6D"/>
<path d="M8.625 2.625C8.625 3.45412 7.95412 4.125 7.125 4.125V6.75C7.95412 6.75 8.625 7.42088 8.625 8.25H19.875C19.875 7.42088 20.5459 6.75 21.375 6.75V4.125C20.5459 4.125 19.875 3.45412 19.875 2.625H8.625Z" fill="#F7F4F0"/>
<path d="M12 1.125H16.5V9.75H12V1.125Z" fill="#E89D43"/>
<path d="M13.5 2.625H15V8.25H13.5V2.625Z" fill="#EAE8E5"/>
</svg>
