<svg width="25" height="24" viewBox="0 0 25 24" fill="none" xmlns="http://www.w3.org/2000/svg">
<path d="M16.5557 23.5258H8.50781C8.40417 23.5258 8.32031 23.442 8.32031 23.3383V21.4668C8.32031 21.0526 8.65594 20.7168 9.07031 20.7168H15.9932C16.4073 20.7168 16.7432 21.0526 16.7432 21.4668V23.3383C16.7432 23.442 16.6591 23.5258 16.5557 23.5258Z" fill="#2EC8E3"/>
<path d="M10.8889 20.7266L7.38867 16.2573L12.5361 5.74121L17.6834 16.2573L14.1738 20.7231L10.8889 20.7266Z" fill="#EFEFEF"/>
<path d="M23.8331 13.3198H21.4004C21.2973 13.3198 21.2129 13.2354 21.2129 13.1323V10.6982C21.2129 10.595 21.2973 10.5107 21.4004 10.5107H23.8331C23.9366 10.5107 24.0206 10.5946 24.0206 10.6982V13.1323C24.0206 13.2354 23.9362 13.3198 23.8331 13.3198Z" fill="#2EC8E3"/>
<path d="M13.749 3.28851H11.3164C11.2133 3.28851 11.1289 3.2041 11.1289 3.10101V0.666992C11.1289 0.563904 11.2133 0.479492 11.3164 0.479492H13.749C13.8522 0.479492 13.9365 0.563904 13.9365 0.666992V3.10101C13.9365 3.2041 13.8522 3.28851 13.749 3.28851Z" fill="#FF5691"/>
<path d="M21.8817 3.06164C21.3895 2.75164 21.1363 2.1505 21.2551 1.58123C21.3756 1.00481 21.8606 0.559682 22.4431 0.481496C23.0248 0.403127 23.6075 0.706167 23.875 1.22912C24.1418 1.75078 24.0552 2.40081 23.6549 2.83001C23.2575 3.25573 22.6136 3.39251 22.0778 3.16417C22.0099 3.13524 21.9441 3.10082 21.8817 3.06164Z" fill="#2EC8E3"/>
<path d="M2.37262 3.27679C1.60046 3.27679 0.96875 2.64508 0.96875 1.87311V1.87146C0.96875 1.09949 1.60046 0.467773 2.37262 0.467773C3.14459 0.467773 3.77631 1.09949 3.77631 1.87146V1.87311C3.77631 2.64508 3.14459 3.27679 2.37262 3.27679Z" fill="#2EC8E3"/>
<path d="M3.62933 13.3429H1.19678C1.09369 13.3429 1.00928 13.2585 1.00928 13.1554V10.7212C1.00928 10.6181 1.09369 10.5337 1.19678 10.5337H3.62933C3.73297 10.5337 3.81683 10.6177 3.81683 10.7212V13.1554C3.81683 13.2585 3.7326 13.3429 3.62933 13.3429Z" fill="#2EC8E3"/>
<path d="M11.5287 17.4955C10.9893 16.9427 10.9997 16.0489 11.5521 15.5093C11.9059 15.1636 12.3995 15.0437 12.8503 15.1473C13.1036 15.2054 13.3433 15.3341 13.5374 15.5328C14.0768 16.0856 14.0662 16.9793 13.5137 17.5191C12.9613 18.0587 12.0681 18.0481 11.5287 17.4955Z" fill="white"/>
<path d="M13.8717 15.2057C13.6325 14.9603 13.3321 14.7871 13.0006 14.7023V11.3647C13.0006 11.1061 12.7908 10.8965 12.5319 10.8965C12.2728 10.8965 12.0631 11.1061 12.0631 11.3647V14.7014C11.7515 14.7811 11.4618 14.9417 11.2232 15.1742C10.4849 15.8956 10.4708 17.0836 11.1917 17.8219C11.54 18.1791 12.0084 18.3791 12.5094 18.3846C12.5174 18.3851 12.5249 18.3851 12.5324 18.3851C13.0255 18.3851 13.489 18.1969 13.8402 17.8538C14.5784 17.1321 14.5925 15.9443 13.8717 15.2057ZM13.1848 17.1841C13.0072 17.3574 12.7719 17.452 12.5207 17.4487C12.3951 17.4473 12.2741 17.4216 12.1631 17.3738C12.0514 17.3264 11.9498 17.2572 11.863 17.1682C11.5021 16.7989 11.5096 16.2047 11.8786 15.8438C12.0547 15.6715 12.2882 15.5787 12.5297 15.5787C12.6009 15.5787 12.6725 15.5867 12.7443 15.603C12.9182 15.6433 13.0763 15.7318 13.2004 15.8592C13.5613 16.2291 13.5543 16.8232 13.1848 17.1841Z" fill="black"/>
<path d="M18.1002 16.0451L12.953 5.52936C12.8742 5.36859 12.7111 5.2666 12.532 5.2666C12.3529 5.2666 12.1894 5.36859 12.1107 5.52936L6.96358 16.0451C6.88485 16.2062 6.90499 16.3981 7.01559 16.5391L9.92458 20.2542H9.07369C8.40206 20.2542 7.85512 20.8 7.85512 21.4714V23.3441C7.85512 23.7055 8.14937 23.9996 8.51137 23.9996H16.5596C16.9214 23.9996 17.2158 23.7055 17.2158 23.3441V21.4714C17.2158 20.8 16.6687 20.2542 15.9971 20.2542H15.129L18.0479 16.54C18.1588 16.3987 18.1795 16.2066 18.1002 16.0451ZM15.9971 21.1906C16.1522 21.1906 16.2783 21.3165 16.2783 21.4714V23.0632H8.79244V21.4714C8.79244 21.3165 8.91915 21.1906 9.07369 21.1906H15.9971ZM13.9373 20.2542H11.1151L7.93478 16.1931L12.5322 6.80084L17.1291 16.1927L13.9373 20.2542Z" fill="black"/>
<path d="M23.8328 10.0426H23.1062C23.0397 9.26678 22.8024 7.63367 21.9607 5.9848C21.3059 4.7016 20.1996 3.2666 18.3471 2.35309H20.8194C20.9366 2.79565 21.2149 3.19629 21.6322 3.4585C22.1876 3.80804 22.9013 3.83551 23.4852 3.53723C23.9771 3.28583 24.3389 2.81433 24.457 2.27509C24.5646 1.78363 24.4659 1.25757 24.1885 0.837891C23.8654 0.348633 23.3142 0.0325927 22.7279 0.00311279C22.1306 -0.0269165 21.5394 0.234741 21.1658 0.702576C21.1213 0.758423 21.08 0.816833 21.0421 0.877441C20.9346 1.04828 20.8588 1.22992 20.8123 1.41577H14.4052V0.667236C14.4052 0.305786 14.1102 0.0117187 13.749 0.0117187H11.316C10.9542 0.0117187 10.6598 0.305786 10.6598 0.667236V1.43976H4.19507C3.9997 0.615234 3.25665 0 2.37262 0C1.34009 0 0.5 0.838989 0.5 1.87042V1.87518C0.5 2.90643 1.34009 3.74542 2.37262 3.74542C3.23175 3.74542 3.9574 3.16498 4.17676 2.37598H6.70801C4.85077 3.28949 3.74097 4.72449 3.08417 6.00769C2.23987 7.6571 2.00275 9.29022 1.93573 10.0659H1.19708C0.835083 10.0659 0.540833 10.3599 0.540833 10.7214V13.1559C0.540833 13.5174 0.835083 13.8115 1.19708 13.8115H3.62927C3.99127 13.8115 4.28552 13.5174 4.28552 13.1559V10.7214C4.28552 10.3599 3.99127 10.0659 3.62927 10.0659H2.87799C2.9483 9.34076 3.177 7.88379 3.91895 6.43433C4.52228 5.25494 5.34387 4.31708 6.36102 3.64673C7.53253 2.87421 8.97669 2.45087 10.66 2.3855V3.10181C10.66 3.46326 10.9542 3.75714 11.3162 3.75714H13.749C14.1104 3.75714 14.4052 3.46326 14.4052 3.10181V2.36243C16.0748 2.42743 17.5092 2.84747 18.6736 3.61304C19.6869 4.27826 20.5068 5.21045 21.1105 6.38232C21.8587 7.83508 22.0907 9.31073 22.1623 10.0426H21.4002C21.0382 10.0426 20.744 10.3365 20.744 10.6979V13.1325C20.744 13.494 21.0382 13.788 21.4002 13.788H23.8329C24.1948 13.788 24.4892 13.494 24.4892 13.1325V10.6979C24.489 10.3365 24.1948 10.0426 23.8328 10.0426ZM21.8365 1.37457C22.0669 1.00745 22.5411 0.843567 22.9491 0.993164C23.2959 1.12042 23.5383 1.44836 23.561 1.81622C23.5845 2.1947 23.369 2.56 23.0242 2.71967C22.6428 2.89618 22.179 2.7962 21.9096 2.47211C21.6536 2.16431 21.6236 1.7135 21.8365 1.37457C21.5619 1.81183 21.9686 1.16382 21.8365 1.37457ZM3.30774 1.87518C3.30774 2.39008 2.88824 2.8092 2.37262 2.8092C1.85699 2.8092 1.4375 2.39008 1.4375 1.87518V1.87042C1.4375 1.35535 1.85699 0.936401 2.37262 0.936401C2.88824 0.936401 3.30774 1.35535 3.30774 1.87042V1.87518ZM3.34802 11.0023V12.8751H1.47833V11.0023H3.34802ZM13.4677 2.82074H11.5973V0.94812H13.4677V2.82074ZM23.5517 12.8516H21.6813V10.9788H23.5517V12.8516Z" fill="black"/>
<path d="M12.5336 9.96082C12.2747 9.96082 12.0645 9.75116 12.0645 9.49261C12.0645 9.23407 12.2741 9.02441 12.533 9.02441H12.5336C12.7923 9.02441 13.0023 9.23407 13.0023 9.49261C13.0023 9.75116 12.7925 9.96082 12.5336 9.96082Z" fill="black"/>
</svg>
