<svg width="21" height="18" viewBox="0 0 21 18" fill="none" xmlns="http://www.w3.org/2000/svg">
<path d="M17.9668 0.25C18.6582 0.25 19.2168 0.809766 19.2168 1.5C19.2168 2.19023 18.6582 2.75 17.9668 2.75H3.5918C3.24648 2.75 2.9668 3.03125 2.9668 3.375C2.9668 3.71875 3.24648 4 3.5918 4H17.9668C19.3457 4 20.4668 5.12109 20.4668 6.5V15.25C20.4668 16.6289 19.3457 17.75 17.9668 17.75H2.9668C1.58594 17.75 0.466797 16.6289 0.466797 15.25V2.75C0.466797 1.36914 1.58594 0.25 2.9668 0.25H17.9668ZM16.7168 12.125C17.4082 12.125 17.9668 11.5664 17.9668 10.875C17.9668 10.1836 17.4082 9.625 16.7168 9.625C16.0254 9.625 15.4668 10.1836 15.4668 10.875C15.4668 11.5664 16.0254 12.125 16.7168 12.125Z" fill="white"/>
</svg>
