<svg width="25" height="24" viewBox="0 0 25 24" fill="none" xmlns="http://www.w3.org/2000/svg">
<g clip-path="url(#clip0_179_3068)">
<path d="M24.5 2.15625C24.5 0.991266 23.5556 0.046875 22.3906 0.046875H2.60938C1.44439 0.046875 0.5 0.991266 0.5 2.15625V6.375L0.96875 6.84375H24.0312C24.2143 6.6607 24.317 6.55805 24.5 6.375V2.15625Z" fill="url(#paint0_linear_179_3068)"/>
<path d="M20.9375 2.85938H16.7188C16.3304 2.85938 16.0156 3.17419 16.0156 3.5625C16.0156 3.95081 16.3304 4.26562 16.7188 4.26562H20.9375C21.3258 4.26562 21.6406 3.95081 21.6406 3.5625C21.6406 3.17419 21.3258 2.85938 20.9375 2.85938Z" fill="#0052C2"/>
<path d="M9.6875 4.26562C10.0758 4.26562 10.3906 3.95083 10.3906 3.5625C10.3906 3.17417 10.0758 2.85938 9.6875 2.85938C9.29917 2.85938 8.98438 3.17417 8.98438 3.5625C8.98438 3.95083 9.29917 4.26562 9.6875 4.26562Z" fill="#F03800"/>
<path d="M6.875 4.26562C7.26333 4.26562 7.57812 3.95083 7.57812 3.5625C7.57812 3.17417 7.26333 2.85938 6.875 2.85938C6.48667 2.85938 6.17188 3.17417 6.17188 3.5625C6.17188 3.95083 6.48667 4.26562 6.875 4.26562Z" fill="#FDBF00"/>
<path d="M4.0625 4.26562C4.45083 4.26562 4.76562 3.95083 4.76562 3.5625C4.76562 3.17417 4.45083 2.85938 4.0625 2.85938C3.67417 2.85938 3.35938 3.17417 3.35938 3.5625C3.35938 3.95083 3.67417 4.26562 4.0625 4.26562Z" fill="#37D742"/>
<path d="M0.5 6.375V21.8438C0.5 23.0069 1.44627 23.9531 2.60938 23.9531H22.3906C23.5537 23.9531 24.5 23.0069 24.5 21.8438V6.375H0.5Z" fill="url(#paint1_linear_179_3068)"/>
<path d="M13.6967 18.1055C13.656 18.355 13.5912 18.596 13.504 18.8265L14.2867 19.5358C14.177 19.7668 14.052 19.9888 13.9078 20.1973L12.9028 19.8733C12.7442 20.067 12.5668 20.2442 12.373 20.4028L12.697 21.4078C12.4885 21.552 12.2665 21.6768 12.0355 21.7867L11.3263 21.004C11.0957 21.0912 10.855 21.156 10.6052 21.1967L10.382 22.2308C10.2558 22.2408 10.129 22.25 10 22.25C9.871 22.25 9.74425 22.2408 9.61775 22.2308L9.3945 21.1967C9.145 21.156 8.904 21.0912 8.6735 21.004L7.96425 21.7867C7.73325 21.677 7.51125 21.552 7.30275 21.4078L7.62675 20.4028C7.433 20.2442 7.25575 20.0668 7.09725 19.8733L6.09225 20.1973C5.948 19.9888 5.82325 19.7668 5.71325 19.5358L6.496 18.8265C6.40875 18.596 6.344 18.3553 6.30325 18.1055L5.26925 17.8822C5.25925 17.7557 5.25 17.629 5.25 17.5C5.25 17.371 5.25925 17.2443 5.26925 17.1178L6.30325 16.8945C6.344 16.645 6.40875 16.404 6.496 16.1735L5.71325 15.4642C5.823 15.2332 5.948 15.0113 6.09225 14.8028L7.09725 15.1267C7.25575 14.933 7.43325 14.7557 7.627 14.5972L7.303 13.5922C7.5115 13.448 7.7335 13.3233 7.9645 13.2133L8.67375 13.996C8.90425 13.9087 9.145 13.844 9.39475 13.8032L9.618 12.7692C9.74425 12.7592 9.871 12.75 10 12.75C10.129 12.75 10.2557 12.7592 10.3822 12.7692L10.6055 13.8032C10.855 13.844 11.096 13.9087 11.3265 13.996L12.0357 13.2133C12.2667 13.323 12.4888 13.448 12.6973 13.5922L12.3733 14.5972C12.567 14.7557 12.7442 14.9332 12.9028 15.127L13.9078 14.803C14.052 15.0115 14.1768 15.2335 14.2867 15.4645L13.504 16.1737C13.5912 16.4042 13.656 16.645 13.6967 16.8947L14.7308 17.118C14.7408 17.2442 14.75 17.371 14.75 17.5C14.75 17.629 14.7408 17.7557 14.7308 17.8822L13.6967 18.1055ZM10 15C8.61925 15 7.5 16.1193 7.5 17.5C7.5 18.8807 8.61925 20 10 20C11.3807 20 12.5 18.8807 12.5 17.5C12.5 16.1193 11.3807 15 10 15Z" fill="#014DB6"/>
<path d="M17.1648 11.0763C17.1258 11.2055 17.0747 11.3295 17.012 11.4462L17.4067 12.2028C17.2735 12.3713 17.1215 12.5232 16.953 12.6565L16.1965 12.2618C16.0797 12.3248 15.9557 12.3758 15.8265 12.4145L15.5705 13.2295C15.465 13.242 15.3585 13.25 15.25 13.25C15.1415 13.25 15.035 13.242 14.9298 13.2298L14.6737 12.4148C14.5445 12.376 14.4205 12.3247 14.3038 12.262L13.5472 12.6568C13.3787 12.5235 13.2268 12.3715 13.0935 12.203L13.4882 11.4465C13.4252 11.3297 13.3742 11.2057 13.3355 11.0765L12.5205 10.8205C12.508 10.715 12.5 10.6085 12.5 10.5C12.5 10.3915 12.508 10.285 12.5203 10.1797L13.3352 9.92375C13.374 9.7945 13.4252 9.6705 13.488 9.55375L13.0933 8.79725C13.2265 8.62875 13.3785 8.47675 13.547 8.3435L14.3035 8.73825C14.4203 8.67525 14.5443 8.62425 14.6735 8.5855L14.9295 7.7705C15.035 7.758 15.1415 7.75 15.25 7.75C15.3585 7.75 15.465 7.758 15.5702 7.77025L15.8263 8.58525C15.9555 8.624 16.0795 8.67525 16.1962 8.738L16.9528 8.34325C17.1213 8.4765 17.2732 8.6285 17.4065 8.797L17.0118 9.5535C17.0748 9.67025 17.1258 9.79425 17.1645 9.9235L17.9795 10.1795C17.992 10.285 18 10.3915 18 10.5C18 10.6085 17.992 10.715 17.9797 10.8203L17.1648 11.0763ZM15.25 9.5C14.6978 9.5 14.25 9.94775 14.25 10.5C14.25 11.0522 14.6978 11.5 15.25 11.5C15.8022 11.5 16.25 11.0522 16.25 10.5C16.25 9.94775 15.8022 9.5 15.25 9.5Z" fill="#013B90"/>
<path d="M19.1847 16.7177C19.1462 16.8565 19.092 16.988 19.0225 17.1108L19.2712 17.6342C19.1582 17.7785 19.0285 17.9082 18.8842 18.0212L18.3608 17.7725C18.2383 17.842 18.1065 17.8962 17.9677 17.9347L17.7732 18.4817C17.6835 18.4927 17.5928 18.5 17.5 18.5C17.4072 18.5 17.3165 18.4927 17.2268 18.4817L17.0323 17.9347C16.8935 17.8962 16.762 17.842 16.6392 17.7725L16.1158 18.0212C15.9715 17.9082 15.8418 17.7785 15.7288 17.6342L15.9775 17.1108C15.908 16.9883 15.8538 16.8565 15.8153 16.718L15.2683 16.5235C15.2573 16.4335 15.25 16.3428 15.25 16.25C15.25 16.1572 15.2573 16.0665 15.2683 15.9768L15.8153 15.7823C15.8538 15.6435 15.908 15.512 15.9775 15.3895L15.7288 14.866C15.8418 14.7218 15.9715 14.592 16.1158 14.479L16.6392 14.7277C16.7617 14.6582 16.8935 14.604 17.0323 14.5655L17.2268 14.0185C17.3165 14.0072 17.4072 14 17.5 14C17.5928 14 17.6835 14.0072 17.7732 14.0182L17.9677 14.5652C18.1065 14.6037 18.238 14.658 18.3608 14.7275L18.8842 14.4788C19.0285 14.5918 19.1582 14.7215 19.2712 14.8657L19.0225 15.3892C19.092 15.5117 19.1462 15.6435 19.1847 15.7823L19.7317 15.9768C19.7427 16.0665 19.75 16.1572 19.75 16.25C19.75 16.3428 19.7427 16.4335 19.7317 16.5232L19.1847 16.7177ZM17.5 15.5C17.0857 15.5 16.75 15.8357 16.75 16.25C16.75 16.6642 17.0857 17 17.5 17C17.9142 17 18.25 16.6642 18.25 16.25C18.25 15.8357 17.9142 15.5 17.5 15.5Z" fill="#013583"/>
</g>
<defs>
<linearGradient id="paint0_linear_179_3068" x1="0.5" y1="3" x2="24.5" y2="3.5" gradientUnits="userSpaceOnUse">
<stop stop-color="#0052C2"/>
<stop offset="1" stop-color="#003481"/>
</linearGradient>
<linearGradient id="paint1_linear_179_3068" x1="0.5" y1="15" x2="24.5" y2="15" gradientUnits="userSpaceOnUse">
<stop stop-color="#E0F4FF"/>
<stop offset="1" stop-color="#B8E0F5"/>
</linearGradient>
<clipPath id="clip0_179_3068">
<rect width="24" height="24" fill="white" transform="translate(0.5)"/>
</clipPath>
</defs>
</svg>
